<?xml version="1.0" encoding="utf-8"?>
<!-- Generator: Adobe Illustrator 23.0.6, SVG Export Plug-In . SVG Version: 6.00 Build 0)  -->
<svg version="1.1" id="Logo" xmlns="http://www.w3.org/2000/svg" xmlns:xlink="http://www.w3.org/1999/xlink" x="0px" y="0px"
	 viewBox="0 0 432.2 208.1" style="enable-background:new 0 0 432.2 208.1;" xml:space="preserve">
<style type="text/css">
	.st0{fill:#E7F6FD;}
</style>
<path class="st0" d="M70.2,89.2H98v2h-7.8c0,6.9-2.2,11.8-6.6,14.8c-4.4,3-9,4.5-13.8,4.5c-7,0-12.9-2.8-17.6-8.4
	c-4.7-5.6-7-12.2-7-19.7c0-7.6,2.4-14.2,7.2-19.8c4.8-5.6,10.7-8.4,17.9-8.4c3.7,0,7.2,1.1,10.6,3.2c1,0.6,1.7,1,2.1,1
	c0.9,0,1.7-0.8,2.6-2.3h1.8l0.6,14.6h-2c-2.2-9.6-7.5-14.4-15.8-14.4c-4.3,0-7.4,1-9.4,2.9c-2,1.9-3.2,4.4-3.6,7.3
	c-0.4,3-0.7,7.2-0.7,12.6c0,9.9,0.3,16.4,1,19.6c0.7,3.2,2,5.6,4,7.2c2,1.6,4.5,2.4,7.5,2.4c2.3,0,4.4-0.5,6.3-1.4
	c1.8-1,3-2.4,3.4-4.3c0.5-1.9,0.7-4.8,0.7-8.6v-2.9h-9.1V89.2z M152.8,57.6h8.4v23H138v-23h8.5v-2H120v2h8.5v49.7H120v2h26.5v-2H138
	V82.6h23.2v24.7h-8.4v2h26.4v-2h-8.5V57.6h8.5v-2h-26.4V57.6z M246.2,62.9c5,5.7,7.5,12.2,7.5,19.5c0,7.5-2.5,14.1-7.6,19.7
	c-5,5.7-10.8,8.5-17.4,8.5c-6.9,0-12.8-2.9-17.7-8.7c-4.9-5.8-7.3-12.1-7.3-18.7c0-8,2.5-14.8,7.6-20.4c5.1-5.6,11-8.4,17.7-8.4
	C235.5,54.3,241.2,57.1,246.2,62.9z M242.6,80c0-7.5-0.5-12.7-1.5-15.6c-1-2.9-2.5-4.9-4.7-6.2c-2.2-1.3-4.6-1.9-7.5-1.9
	c-2.9,0-5.6,0.7-7.9,2c-2.3,1.3-3.9,3.7-4.8,7c-0.8,3.3-1.3,9.2-1.3,17.5c0,5.7,0.2,10.3,0.7,13.7c0.5,3.4,1.7,6.3,3.7,8.5
	c2,2.2,5,3.4,9.2,3.4c2.6,0,5.1-0.7,7.7-2c2.6-1.4,4.3-4,5.1-8C242.2,94.4,242.6,88.3,242.6,80z M312.5,83c1.6,2.6,2.5,5.7,2.5,9.1
	c0,5.3-1.7,9.7-5.2,13.2c-3.4,3.5-7.7,5.3-12.8,5.3c-4.1,0-8.3-1.5-12.4-4.6l-3.8,3.4h-1.4v-15h1.7c0.8,2.4,1.8,4.6,2.9,6.4
	c0.3,0.2,0.6,0.2,0.7,0.9c-0.1-0.1-0.2-0.2-0.3-0.2c1,1.4,2,2.6,3.2,3.6c2.8,2.4,5.9,3.6,9.3,3.6c3.3,0,6.4-1.1,9.2-3.3
	c2.8-2.2,4.2-5,4.2-8.4c0-2.8-1-5.2-2.9-7.2c-1.9-1.9-5.1-3.3-9.4-4c-4.3-0.7-7.7-1.6-10-2.6c-2.3-1-4.3-2.7-6-5.1
	c-1.7-2.4-2.5-5.1-2.5-8c0-3.3,1-6.4,2.9-9.1c-0.3-0.3-0.4,0-0.9,0c0-0.2,0.1-0.2,0.2-0.2c-0.1-0.2-0.2-0.3-0.4-0.4
	c0.8,0,0.4,0.1,1.3-0.2c0.2,0.2-0.1,0.3-0.1,0.6c0.3-0.4,0.6-0.8,0.9-1.2c0,0,0-0.1,0-0.1c-0.3,0-0.5,0.1-0.5,0.4
	c-0.4-0.3,0.1-0.4-0.2-0.9c0.2,0,0.1,0.2,0.2,0.4c0.2,0,0.3,0,0.4-0.2c0.1,0.3,0.3,0.3,0.4,0.3c0.1-0.1,0.1-0.2,0.2-0.3
	c0.8-0.8,1.6-1.6,2.5-2.2c-0.3-0.2-0.2-0.7-0.6-1c0.9,0.1,0.5,0.6,0.8,0.9c0.1-0.1,0.2-0.1,0.3-0.2c0-0.1,0-0.1,0-0.2
	c-0.3-0.3,0-0.1,0.2,0.1c0.1,0,0.1-0.1,0.2-0.1c-0.1-0.1-0.3-0.3-0.3-0.4c0.1-0.2,0.4,0,0.7,0.1c0.3-0.2,0.6-0.3,0.9-0.4
	c0-0.1,0.1-0.2,0.2-0.2c0.1,0,0.1,0.1,0.1,0.1c0.6-0.3,1.3-0.5,2-0.7c-0.1-0.5-0.8-0.5-0.9-1c0.3,0.4,1,0.3,1.1,0.9
	c0.4-0.1,0.4-0.1,0.5,0c0.1,0,0.2,0,0.3-0.1c-0.1-0.2,0.4-0.2,0.7-0.1c0,0,0.1,0,0.1,0c-0.3-0.4-0.4-0.5-0.7-1.2
	c0.1,0.1,0.7,0.4,0.7,0c0.4-0.4,0,0.4-0.2,0.5c0,0.1,0.2,0.2,0.2,0.4c0.4,0,0.2-0.5,0.7-0.4c0-0.1-0.2-0.2-0.2-0.4
	c0.4-0.2,0.2,0.4,0.3,0.9c0.1,0,0.2,0,0.3,0c0.1-0.2,0.2-0.2,0.3,0c0.1,0,0.2,0,0.3,0c0.1-0.1,0.2-0.1,0.3,0c0.1,0,0.3,0,0.4,0
	c-0.2-0.3-0.5-0.6-0.9-0.8c0.1-0.3,0.3,0,0.5,0c0.3,0.2,0.6,0.3,0.6,0.8c0.1,0,0.1,0,0.2,0c0.1-0.2,0.1-0.3,0.5-0.2
	c-0.2-0.2-0.2-0.7,0-0.9c0.5,0.3,0,0.9,1.1,0.9c0.2,0,0.2-0.3,0.2-0.5c0.6-0.1-0.2-1.2-0.4-0.5c-0.4-0.1,0.2-0.6,0.5-0.5
	c0,0.2-0.1,0.2-0.2,0.2c0.2,0.4,1,0.5,0.9-0.2c0.2,0.1,0.2,0.4,0.5,0.4c0,0.2-0.2,0.1-0.4,0.2c-0.2,0-0.2,0.3-0.2,0.5
	c-0.3,0.1-0.3-0.1-0.4-0.4c-0.3,0.2-0.4,0.7-0.5,1.2c0,0,0.1,0,0.1,0c0.2-0.2,0.2-0.7,0.8-0.6c0.1,0.4,0.4,0.6,0.6,0.8
	c0.2,0,0.4,0.1,0.7,0.1c0.2,0,0.3,0,0.3-0.2c0.2,0,0.1,0.2,0,0.2c0,0.1,0.1,0.1,0.2,0.1c0.2,0,0.4,0.1,0.7,0.2
	c0-0.1-0.1-0.2-0.3-0.3c0.1-0.1,0.3,0.1,0.7,0.4c0.5,0.1,1,0.3,1.5,0.5c0.1-0.1,0.2,0,0.4,0.2c0.3,0.1,0.6,0.2,0.9,0.4
	c0-0.1,0-0.1,0-0.2c0.3,0.2,0.4,0.2,0.5-0.2c0.2,0.1,0.1,0.3-0.1,0.6c0.1,0.1,0.2,0.1,0.3,0.2c0.3,0,0.5,0,0.5,0.3
	c0.2,0.1,0.4,0.3,0.7,0.4c0.1,0,0.1-0.1,0.2-0.1c-0.4-0.9,0.1,0.1,0.4-0.5c0-0.2-0.2-0.1-0.4-0.2c0-0.2,0.1-0.2,0.2-0.2
	c0.1,0,0.2,0,0.4,0c0,0.4-0.3,0.6-0.4,0.9c-0.1,0.2,0.5,0.6,0.5,0.2c0.2-0.5,0.2,0.3,0,0.4c-0.2,0-0.3-0.1-0.5-0.2
	c0.2,0.1,0.4,0.3,0.6,0.4c0.1-0.1,0.3-0.2,0.4-0.2c0,0.2-0.1,0.3-0.2,0.4c0.2,0.1,0.4,0.2,0.5,0.4c0,0,0,0,0,0c0,0,0,0,0,0l0,0
	c0.1-0.1,0.1-0.1,0.2-0.2c0,0-0.1,0-0.2,0c0-0.2,0-0.4,0-0.5c0.5,0,0.5-0.1,0.8-0.1c0.7-0.7,1.3-1.6,1.8-2.5h1.6l0.2,9.6
	c0.2,0.1,0.5,0.3,0.7,0.3c0.2,0,0.2-0.1,0.2-0.2c0.4-0.4-0.2,0.9-0.7,0.7c0-0.2,0.2-0.1,0.4-0.2c-0.1-0.2-0.3-0.4-0.5-0.5l0.1,3
	c0,0,0,0,0,0c0,0,0,0,0,0l0,0.2c0-0.1,0.1-0.1,0.1-0.2c0.1,0.2,0.3,0.7,0.4,1c-0.4,0.1-0.3-0.3-0.4-0.5c0,0,0,0-0.1,0l0,0.6h-0.1
	c0,0.2,0,0.3,0,0.4c-0.2,0-0.2-0.3-0.3-0.4h-1c0.4,0.3,0.7,0.6,0.6,0.9c0.2-0.1,0.2-0.4,0.5-0.4c0.1,0.3-0.2,0.3-0.2,0.5
	c0.9,0.1,0-0.6,0.7-0.5c0.1,0.4-0.3,0.4-0.2,0.9c-0.7-0.2-1.2-0.6-1.4-1.3c-0.3,0.2-0.6,0.4-0.7,0.7c0.3,0.6,0.2-0.6,0.7-0.4
	c-0.5,0.3,0,1.1-0.7,0.7c-0.1,0.4,0.3,0.4,0.4,0.2c0.5,1-1.2,0.1-1.3-0.5c0.5-0.1,0.4,0.4,0.7,0.4c0-0.5-0.3-0.4,0-0.7
	c-0.4,0-0.6,0.3-0.9,0.4c0,0.7,0.4,1.1,1.1,1.3c0.8,0.1,0.5-1,1.3-0.9c-0.2,0.4-0.1,0.9,0.2,0.5c0.3-0.1,0,0.7-0.4,0.5
	c-0.1,0.6,0.2,0.7,0.5,0.9c-0.2,0.5-0.3-0.4-0.7-0.2c0-0.4,0-0.9,0.4-0.9c0-0.1-0.2-0.2-0.2-0.4c-0.2,0.1-0.8,0.6-0.4,0.7
	c0.1,0.4-0.5,0-0.5-0.2c-0.2,0.1-0.2,0.4-0.5,0.4c0,0.3,0.2,0.3,0.2,0.5c-0.9,0.2-1.3,0.8-1.6,1.6c-0.7-0.6,0.6-0.7,0.4-1.4
	c0.2,0,0.5,0,0.7,0c0-0.5,0-1,0.5-0.9c-0.5-0.6-1.4-0.4-2-0.5c0,0.3,0.2,0.4,0.2,0.7c0.1-0.1,0.3-0.2,0.5-0.2
	c-0.6-0.6,0.8-0.3,0.7,0.2c-0.7-0.5-0.5,1.3-1.6,1.4c0-0.2,0.4-0.1,0.4-0.4c0-0.4-0.5,0.2-0.5,0.4c0.4,1.3,1.1,0.8,1.6,1.4
	c0.6-0.5-0.5-0.9-0.9-0.5c0.5-0.5,1.1-0.1,1.2-1.3c0.2,0.1,0.3,0.3,0.5,0.4c0,0.3-0.6,0.1-0.5,0.5c0.4,0.8,1.3,0.4,1.8-0.2
	c0.3,0.2-0.5,0.8-0.9,0.9c0,0.3,0.2,0.4,0.2,0.7c-0.5,0-0.3-0.5-0.2-0.9c-0.5,0.5-1.1,0-1.4,0.9c-0.3-0.1-0.4-0.4-0.9-0.4
	c0,0.2,0.2,0.1,0.4,0.2c0,0.6-0.3,0.8,0.2,1.3c-0.1,0.3-0.4,0.1-0.4-0.2c-0.5,0-0.4,0.3-0.7,0c0-0.5,0.3-0.7,0.4-1.3
	c-0.4-0.2-0.7,0.6-0.4,0.5c-0.5,0.4-0.7-0.2-0.7-0.5c-0.3,0.1,0.2,0.3-0.2,0.4c0.3,0.3,0.6,0.7,0.9,1.1c-0.4,0.5-0.5-0.7-1.1-0.5
	c0.8,0.4-0.2,0.7-0.4,1.3c0,0.1,0.1,0.3,0.1,0.3c0.2,0.1,0.3,0.1,0.5,0.2c0.2,0.1,0.4,0.2,0.5,0.3c0.1-0.1,0.1-0.3,0.3-0.3
	c0.1-0.5-0.5-0.3-0.4-0.9c-0.4-0.1-0.3,0.3-0.5,0.4c-0.4,0.4,0.2-0.4,0.2-0.7c0.7,0.1,1.1,1.2,0.9,1.8
	C309.4,79.1,311.1,80.8,312.5,83z M307.2,77.7c0.1,0,0.1,0.1,0.2,0.1C307.3,77.7,307.2,77.7,307.2,77.7z M309.5,67.5
	c0,0.1-0.1,0.1-0.1,0.1c0.1,0,0.2,0.1,0.2,0.1C309.5,67.7,309.5,67.6,309.5,67.5z M286.6,60C286.6,60,286.6,60,286.6,60
	c0.5-0.2,0.6-0.4,0.6-0.6c0,0-0.1,0.1-0.1,0.1C286.9,59.6,286.7,59.8,286.6,60z M284.3,63.5c-0.1,0.2-0.1,0.3-0.1,0.5
	c0,0,0.1,0.1,0.1,0.1c0,0.2-0.1,0.3-0.2,0.3c0,0.1,0,0.2-0.1,0.3c0.2-0.1,0.3-0.3,0.8-0.1C284.4,64.3,284.4,63.9,284.3,63.5z
	 M302.2,58.5c0.1,0.2,0.4,0.2,0.4,0.5c0.2-0.1,0.3-0.3,0.5-0.4c-0.1-0.3-0.2,0.1-0.5,0c0-0.2,0-0.4,0-0.6c0,0-0.1,0-0.1,0
	C302.4,58.2,302.3,58.4,302.2,58.5z M303.8,75.9c-0.2,0-0.3,0.2-0.4,0.3c0.1,0,0.1,0,0.2,0.1c0.1,0,0.1,0,0.2,0c0,0,0,0,0,0.1
	c0,0,0.1,0,0.1,0C304,76.2,303.9,76.1,303.8,75.9z M303.8,59c-0.1-0.1-0.2-0.2-0.4-0.3C303.5,58.8,303.6,58.9,303.8,59z M300.7,57.2
	c-0.1,0.1-0.3,0.2-0.4,0.1c0.2,0.5,0.4,0.3,0.6,0C300.8,57.3,300.7,57.2,300.7,57.2z M288.6,58.2c-0.1,0-0.1,0.1-0.2,0.1
	c0.2,0.1,0.3,0.2,0.4,0.4c0,0.2-0.4,0.1-0.4,0.4C289,59.3,288.9,58.7,288.6,58.2z M305.6,77c-0.1-0.1-0.1-0.3,0-0.5
	c-0.3,0-0.5,0.1-0.6,0.3C305.2,76.8,305.4,76.9,305.6,77z M306.5,61.9C306.5,62,306.6,61.9,306.5,61.9c0-0.1-0.1-0.3-0.2-0.4
	C306.4,61.7,306.5,61.8,306.5,61.9z M306.9,62.5c0,0,0-0.1-0.1-0.1C306.9,62.4,306.9,62.4,306.9,62.5
	C306.9,62.5,306.9,62.5,306.9,62.5z M309.2,67.1c-0.9-0.4-0.3-1.4-1.1-1.3c0.1-0.5,0.1-0.8,0.2-1.1c-0.1-0.1-0.1-0.3-0.2-0.4
	c-0.1,0-0.1,0-0.2,0c0.1,0.2,0.2,0.3,0.4,0.4c-0.1,0.2-0.2,0.4-0.5,0.4c-0.2,0.9,0.9,1.1,0.4,1.8C308.6,66.7,308.4,67.2,309.2,67.1z
	 M309.7,68.2c0-0.1,0-0.1-0.1-0.2c-0.1,0.2-0.6,0.3-0.3,0.6C309.5,68.5,309.6,68.3,309.7,68.2z M307.7,57.9c0.1-0.1,0.2-0.2,0.2-0.2
	c-0.1,0-0.2,0-0.4,0C307.7,57.8,307.7,57.8,307.7,57.9z M302.4,55.5c0,0,0.1,0,0.1,0C302.5,55.5,302.5,55.5,302.4,55.5z M297.5,54.4
	c0.1,0,0.2,0,0.2,0c0,0-0.1-0.1-0.1-0.2C297.6,54.3,297.6,54.3,297.5,54.4z M296.3,54.3c0.2,0,0.3,0,0.5,0c0-0.1,0-0.2-0.1-0.3
	C296.5,54.1,296.4,54.2,296.3,54.3z M295.6,54.3c0.1,0,0.1,0,0.2,0c0.1,0,0.3,0,0.4,0c0,0,0-0.1,0.1-0.2
	C296,54,295.9,54.3,295.6,54.3C295.6,54.3,295.6,54.3,295.6,54.3z M292.9,54.5c0.2,0,0.3,0,0.5-0.1c-0.1-0.1-0.2-0.2-0.3-0.2
	C293,54.3,292.9,54.4,292.9,54.5z M339.5,55.5l-0.8,10.7c-0.4-0.8-1.1-1.5-2.3-1.6c-0.3,0.6,0.1,0.8-0.4,1.1
	c0.5,0.3,1.3,0.7,1.8,1.4c0.1-0.3,0.5,0,0.8-0.1l-0.5,6.7h2c1.3-6.1,2.9-10.4,5-12.7c2.1-2.4,4.8-3.5,8.2-3.5h4.4v49.7H348v2h16.6
	c0.3,0.5,0.5,1.2,1.3,1.2c0.1-0.3-0.1-0.8-0.4-1.2h11.3v-2h-9.6V57.6h4.4c3.4,0,6.1,1.2,8.2,3.5c2.1,2.4,3.7,6.6,5,12.7h2l-1.4-18.3
	H339.5z M73.4,150h3.5l-4.5,12l-5.6-13.3h-0.8L60.7,162l-5.1-12H59v-1.2H47.6v1.2h3.1l7.8,18.6h0.8l5.3-13.3l5.6,13.3h0.8l7.1-18.6
	h3v-1.2h-7.7V150z M296.7,134.8c-1.7,0.2-3.4,0.4-5,0.4h-3.2v1.2h3.5v21c-0.3-0.3-0.7-0.6-1.2-0.6c0,0.3,0,0.6-0.2,0.7
	c0.7,0.2,1,0.8,1.4,1.2v8h-3.5v1.2h11.4v-1.2h-3.1V134.8z M160.1,165h0.6c-0.4,2.4-1.8,3.6-4.1,3.6c-2.3,0-3.6-1.3-4.1-3.9
	c-1.9,2.6-4.1,3.9-6.7,3.9c-1.7,0-3-0.5-4.1-1.4c-1-0.9-1.5-2-1.5-3.4c0-4.2,4.1-6.4,12.3-6.8v-2.5c0-2-0.2-3.4-0.5-4
	c-0.3-0.6-1.2-1-2.7-1c-2.6,0-4,0.5-4,1.5c0,0.3,0.1,0.6,0.3,1c0.2,0.3,0.3,0.8,0.3,1.2c0,0.7-0.2,1.2-0.7,1.5
	c-0.4,0.4-0.9,0.5-1.5,0.5c-0.7,0-1.3-0.2-1.7-0.7c-0.4-0.4-0.6-1-0.6-1.6c0-1.3,0.8-2.4,2.3-3.3c1.5-0.9,3.6-1.3,6.4-1.3
	c2.2,0,3.8,0.3,4.8,0.8c1,0.5,1.6,1.1,1.9,1.9c0.2,0.7,0.4,1.8,0.4,3.2v9c0,1.3,0.1,2.1,0.3,2.5c0.2,0.3,0.5,0.5,0.9,0.5
	C159,166.2,159.6,165.8,160.1,165z M152.5,158.1c-3,0.1-5,0.6-6,1.4c-1,0.8-1.4,1.9-1.4,3.4c0,1.1,0.3,1.9,0.9,2.5
	c0.6,0.6,1.2,0.9,2,0.9c1,0,1.8-0.3,2.6-1c0.8-0.6,1.3-1.3,1.6-1.9c0.3-0.7,0.4-1.5,0.4-2.7V158.1z M227.2,134.8
	c-1,0.2-2.7,0.4-4.9,0.4h-3.3v1.2h3.5v30.3h-3.5v1.2h11.7v-1.2h-3.4V134.8z M301.2,155l5.4-5h4.6v-1.2h-9.4
	c-0.2-0.1-0.3-0.2-0.5-0.3c0,0.2,0,0.2-0.1,0.3h-0.3v1.2h1.2c0,0.1,0.1,0.2,0.1,0.4c0.3-0.1,0.9,0.2,0.9-0.2c0-0.1-0.1-0.1-0.1-0.2
	h2.1l-7.8,7.3l8,9.4h-3.5v1.2h11.6v-1.2h-2.1L301.2,155z M378.9,155.2c-2.2-0.3-3.6-0.6-4.2-1.1c-0.6-0.4-0.9-1-0.9-1.7
	c0-0.8,0.4-1.6,1.3-2.3c0.8-0.7,1.9-1,3.1-1c2.9,0,4.7,1.6,5.5,4.8h1v-5.5h-0.8c-0.3,0.6-0.7,1.1-1,1.5c-1.3-1.2-2.8-1.9-4.7-1.9
	c-1.8,0-3.3,0.6-4.5,1.7c-1.2,1.1-1.8,2.5-1.8,4.2c0,3.4,2.3,5.4,6.9,6.1c2.7,0.4,4.3,0.8,4.9,1.3c0.6,0.5,0.9,1.1,0.9,2
	c0,1.1-0.5,2-1.5,2.8c-1,0.8-2.2,1.2-3.4,1.2c-3.3,0-5.7-2.3-7.1-6.9h-0.9v7.2h0.9l1.7-1.5c1.7,1.5,3.5,2.3,5.3,2.3
	c1.9,0,3.4-0.6,4.7-1.9c1.3-1.3,1.9-2.9,1.9-4.8C386.2,158.1,383.8,155.8,378.9,155.2z M152.9,58.9c1.2-0.5,0.9,0.9,2.3,0.9
	c-0.2-0.4,0.5-0.7,0-0.7c-0.3,0-0.8-1.3-1.8-1.3C153.6,58.6,153.2,58.6,152.9,58.9z M192.3,59.1c0.3-1.4-0.4,0.4-0.7-1.1
	c0.1,0,0.2-0.1,0-0.2c-0.1,0.7-0.6,0-1.3,0.2c-0.2,0.5-0.5,1.1,0.2,1.8c0-0.2,0.3-0.2,0.5-0.2c-0.7,0.9,1.3,0.7,0.4,1.4
	c0.6,0,0.5-1.2,1.3-0.5c-0.5-1,0.9-1.8,0.5-1.6C192.7,59.1,192.8,58.9,192.3,59.1z M276.1,92.9c0.6,0.3,0.9,1.8,1.6,1.4
	C277.4,93.7,276.5,92.8,276.1,92.9z M260.8,172.9c0.2,1,1,1.2,1.4,2C262.3,173.8,261.7,173.2,260.8,172.9z M267.1,147.2
	c0.1,0.6-0.3,0.8-0.5,1.1c1.4-0.1,1.3,1.2,2.5,1.3C269,148.1,268.5,147.2,267.1,147.2z M270,207.5c0.9,0.1,0.8,1.1,1.4,1.4
	C271.5,208,270.4,206.8,270,207.5z M273.2,159.9c0.6,0.4,1,1.1,1.4,1.6C275.1,160.8,274,159.3,273.2,159.9z M220.2,73.9
	c0.1,0,0.4,0,0.4,0.2c0,0.2-0.1,0.2-0.2,0.4c0.4,0,0.6,0.3,0.9,0c0.3,0.5,0.4,0.6,0.5,1.1c0.1-0.5,0.6,0.6,0.7-0.2
	C221.9,74.5,221.5,73.2,220.2,73.9z M261.7,132.5c0.1-0.6-0.9-0.7-0.4-1.3c-0.6-0.2-0.7,0-1.3-0.4
	C260.9,131.4,260.7,132.7,261.7,132.5z M242.4,120.5c0.6,0.4,0.8,1.3,1.6,1.4C243.7,121.3,243.2,120,242.4,120.5z M285.9,11.1
	c0-1.2-1-1.4-1.6-2c-0.2,0.2-0.2,0.5-0.2,0.9C285.1,10,284.9,11.2,285.9,11.1z M298.1,52.3c0.6,0.2,0.8,0.8,1.4,1.1
	C299.3,52.8,298.7,51.8,298.1,52.3z M290.4,53.4c0,0.3,0,0.7,0.2,0.4c-0.2-0.5-0.3-0.7-0.4-0.9c-0.2,0.2-0.5,0.3-0.4,0.9
	C290.2,53.8,290.2,53.5,290.4,53.4z M294.1,51.9c0.4,0.1,0.7,0,0.9-0.2c0.2,0.3-0.1,0.9,0.2,0.5c0.2-0.2,0.1-0.8,0-1.1
	c-0.1,0.4-0.5,0.5-0.9,0.5c0.5-0.3-0.3-0.6-0.4-0.2C294.1,51.6,294.2,51.7,294.1,51.9z M300.8,54.8c0.1,0,0.2,0,0.4,0
	c0,0.1,0,0.2,0.2,0.2c-0.1-0.9,0.7,0.2,0.7-0.4c-0.3-0.3-0.8-0.4-0.7-1.1c-0.2,0-0.5,0-0.5,0.2C301.4,54.1,301.3,54.4,300.8,54.8z
	 M303.3,53.7c0.6-0.4,0.1,0.9,0.4,1.3c0.5,0,0.6-0.4,1.1-0.4c-0.1,0.8,0.4-0.1,0.4,0.4c-0.1,0.4-0.5,0.4-0.5,0.7
	c0.5-0.1,0.7-0.5,0.9-0.9c-0.5,0-0.7-0.4-1.1-0.5c0,0.5-0.7,0.7-0.7,0.2c0.7-0.3,0-0.8-0.2-1.3C303.5,53.4,302.7,53.6,303.3,53.7z
	 M302,54.4c0.4,0.2,0.4,0.2,0.2-0.2c0-0.2,0.2-0.2,0.2-0.5c-0.6-0.1,0-0.5-0.4-0.5c0,0.2-0.3,0.2-0.4,0.4
	C302.2,53.7,302.2,53.9,302,54.4z M129.8,37.6c0.3,0,0.7,0.1,0.7-0.2c-0.8-0.1-0.3-0.9-1.3-0.5c0.2,0.1,0.4,0.2,0.5,0.4
	C129.8,37.4,129.8,37.5,129.8,37.6z M143.9,28.7c0.4-0.3-0.4-1.7-0.7-0.7C143.8,27.8,143.5,28.6,143.9,28.7z M246.9,2.2
	c0.2-1-0.6-1.8-1.6-1.8c0,0.3,0.1,0.6,0.4,0.7C246.4,1.4,245.8,1.9,246.9,2.2z M237.7,40.6c0.3,0.4,0.4-0.2,0.5,0.2
	c-0.1,0-0.2,0-0.2,0.2c0.2,0,0.4,0,0.5,0c-0.1-0.8-0.6-1.2-1.1-1.6c0,0.1,0,0.4-0.2,0.4c0-0.1,0-0.2-0.2-0.2c0.1,0.3-0.3,0.5,0,0.5
	C237.2,39.8,238.2,40.4,237.7,40.6z M205.9,43.7c-0.8,0.3,0.3,0.3-0.2,0.7c0.3,0,0.4,0.2,0.7,0.2c0.1-1-0.6-1.2-1.1-1.6
	c0.1,0,0.2,0,0.2-0.2c-0.8,0-0.2,0.4-0.5,0.7C205.4,43.8,205.8,43.4,205.9,43.7z M325.5,130.5c-0.4-0.5-1-1.6-1.6-1.3
	C324.6,129.3,324.8,130.9,325.5,130.5z M348.6,160.2c-0.5-0.1-0.6-0.6-1.1-0.7c-0.1,0.7,1.2,0.6,0.5,1.3c0.4,0,0.8,0.8,0.9,0.4
	C348.5,161.1,348.5,160.7,348.6,160.2z M345.3,188.7c1,0.1,1.2,2.1,2.1,1.6C347,189.3,346.4,187.5,345.3,188.7z M341,101.9
	c0,0.2-0.1,0.4-0.2,0.5c0.4-0.1,0.4,0.2,0.5,0.4c0.5-0.5,0.6,1,1.3,1.1c0.4-0.4-0.2-0.6,0.2-0.9C342.1,102.7,341.8,102,341,101.9z
	 M325.1,160.2c-0.1,0.8,0.6,1.1,1.1,1.8C325.6,160.9,326.2,161.3,325.1,160.2z M357.7,185.5c0.5,0.5,0.8,1,1.6,1.6
	C359.1,186.2,358.6,185.6,357.7,185.5z M361.8,190.8c0.5,0.8,0.9,1.6,1.8,2C363.3,191.9,363,190.9,361.8,190.8z M372.2,96.9
	c0.3-0.6-0.6-1.5-1.4-1.6C371.2,95.8,371.7,96.4,372.2,96.9z M308.8,76.4c-0.6,0.1-1.2,1-0.9,1.4c-0.1-1,0.7,1,0.4,0.2
	c0.1-0.4,0-0.7-0.2-0.9C308.4,77,308.7,76.8,308.8,76.4z M317.9,71.1C317.9,71.1,317.9,71.1,317.9,71.1
	C317.9,71.1,317.9,71.1,317.9,71.1C317.9,71.1,317.9,71.1,317.9,71.1z M312.4,70.5c0,0.3-0.4,0.1-0.5,0c-0.1,0.5-0.3,0.7,0.4,0.7
	C312,70.8,312.9,70.7,312.4,70.5z M317.8,71.1c0.1,0,0.1,0,0.2,0C317.9,71,317.8,70.9,317.8,71.1z M316.5,69.1
	c0.4,0,0.1,0.8,0.2,1.1c0-0.2-1.1-0.2-0.5,0c0.3,0,0.4,0.2,0.7,0.2c0-0.2,0-0.5,0.2-0.5c-0.1,0.7,1.5,0.7,0.9,1.2
	c0.4,0.1,0.8,0.4,1.1,0.2C318.9,69.9,317.7,68.8,316.5,69.1z M310.1,73.6c0.6-0.2,2.3-0.7,1.4-1.3c0.3,0.5-0.5,0.8-0.5,0.4
	c0.1,0,0.2-0.1,0-0.2c-0.2,0.4,0,0.9-0.9,0.9C310.4,71.9,309.6,72.8,310.1,73.6z M325.1,42.6c0-0.3,0.4-0.2,0.5-0.4
	c0-1.3-1.6-1.8-2.3-1.8c0.3,0-0.1,0.3,0.2,0.4c0-0.2,0.3-0.2,0.4,0c-0.2,0.1-0.8,0.5-0.4,0.5C324.1,41,325,42.4,325.1,42.6z
	 M321,68.9c0.1,0.6-0.1,0.9-0.4,1.1c1-0.1,1.5,0.5,2.1,1.3C323.8,70.5,322.4,68.8,321,68.9z M310.4,145.2c0.5-1-0.7-1.7-1.4-2.1
	c-0.3,0.3,0.1,0.3,0,0.9C309.9,144,309.8,145,310.4,145.2z M284.8,176.2c0.5,0.5,1,1.8,1.6,1.6C285.9,177.2,285.8,176.3,284.8,176.2
	z M291.3,154.5c-0.6-0.9-0.9-1.4-1.8-1.8c0,0.2-0.1,0.4-0.2,0.5C290.4,153.1,290.3,155.1,291.3,154.5z M306.7,127.1
	c-0.3-0.2-0.6-1.3-1.1-0.5C305.8,126.8,306.5,127.4,306.7,127.1z M286.8,136.6c-0.7,0.1-0.5-0.7-1.3-0.5c-0.2,0.6,0.3,0.4,0.4,0.7
	c-0.1,0-0.2,0-0.2,0.2c1.1-0.1,0.8,1.1,1.4,0.7C287,136.8,286.5,137.3,286.8,136.6z M295.4,182.1c0.1,0.8,1.2,1.1,1.1,1.6
	c0-0.3,0.3,0.1,0.4-0.2C296.4,183,296.1,182.3,295.4,182.1z M291.3,169.5c-0.1,0.3-0.3,0.5-0.4,0.7c1.1-0.1,1.2,1.9,2.3,1.3
	C292.6,170.8,292.6,169.6,291.3,169.5z M312.4,108.7c-0.2,0.4-0.7-0.2-1.3,0c0.1,0.8-0.6,0.7-0.5,1.4c1.5,0.4,1.6,1.5,2.7,1.3
	c-0.7-0.2,0.5,0,0.4-0.4C313.4,110.1,312.6,109,312.4,108.7z M310.4,72.2c-0.1,0-0.2,0-0.2-0.2c0-0.1,0-0.2-0.2-0.2
	c-0.1,0.2-0.2,0.4-0.5,0.4c0,0.2-0.1,0.2-0.2,0.4C309.8,72.5,310.2,72.4,310.4,72.2z M294.7,52.6c0.1,0.3-0.6,0.4-0.7,0.4
	c0,0,0.1,0,0.1,0c0.4,0,0.6,0.1,0.5,0.5c0.2-0.1,0.4-0.2,0.5-0.4C294.6,53.5,295.1,52.6,294.7,52.6z M311.9,67.7
	C311.8,67.7,311.8,67.7,311.9,67.7C311.8,67.7,311.8,67.7,311.9,67.7C311.8,67.7,311.9,67.7,311.9,67.7z M296.5,53.7
	c0.3,0,0.4-0.2,0.7-0.2C297.3,52.8,296.6,53.6,296.5,53.7z"/>
</svg>
