<?xml version="1.0" encoding="utf-8"?>
<!-- Generator: Adobe Illustrator 23.0.6, SVG Export Plug-In . SVG Version: 6.00 Build 0)  -->
<svg version="1.1" id="Layer_1" xmlns="http://www.w3.org/2000/svg" xmlns:xlink="http://www.w3.org/1999/xlink" x="0px" y="0px"
	 viewBox="0 0 514 295" style="enable-background:new 0 0 514 295;" xml:space="preserve">
<style type="text/css">
	.st0{fill:#231F20;}
	.st1{fill:#FFFFFF;}
</style>
<g>
	<rect x="11.7" y="19" class="st0" width="416.1" height="93.6"/>
	<rect x="11.7" y="107.2" class="st0" width="485.5" height="93.6"/>
</g>
<path class="st1" d="M16.1,43.2h12.7v18.7l16-18.7h15.8l-18,19.2L62.8,92H47.1L34,71.5L28.8,77v15H16.1V43.2z"/>
<path class="st1" d="M65,67.5c0.2-4.6,2.4-7.6,5.5-9.5c3.1-1.8,7.2-2.5,11.3-2.5c8.4,0,16.5,1.8,16.5,11.9v15.5c0,3,0,6.3,1.4,9.1
	H88c-0.4-1.1-0.5-2.2-0.7-3.3c-3,3.1-7.4,4.4-11.7,4.4c-6.8,0-12.1-3.4-12.1-10.7c0-11.5,12.6-10.7,20.6-12.3c2-0.4,3.1-1.1,3.1-3.3
	c0-2.7-3.2-3.7-5.6-3.7c-3.2,0-5.3,1.4-5.8,4.4C75.8,67.5,65,67.5,65,67.5z M80,85.8c5.5,0,7.4-3.1,7.1-10.4c-1.6,1-4.6,1.2-7.2,1.9
	c-2.6,0.6-4.8,1.7-4.8,4.5C75.2,84.7,77.4,85.8,80,85.8z"/>
<path class="st1" d="M105.7,56.5H117v6.2h0.1c1.7-4.5,5.7-6.9,10.7-6.9c0.9,0,1.8,0.1,2.7,0.3v10.6c-1.5-0.4-2.9-0.7-4.4-0.7
	c-5.7,0-8.7,4-8.7,8.4V92h-11.6V56.5H105.7z"/>
<path class="st1" d="M134.1,43.2h11.6V92h-11.6V43.2z"/>
<path class="st1" d="M184.4,75.6c0.3,5.7,3.8,7.6,9.2,7.6c3.8,0,7.8-1.4,7.8-5c0-4.3-7-5.1-14-7.1S173.1,66,173.1,57
	c0-10.7,10.7-14.8,19.9-14.8c9.7,0,19.5,4.7,19.5,15.7h-12.7c0.2-4.4-4-5.9-7.9-5.9c-2.7,0-6.1,1-6.1,4.2c0,3.8,7,4.4,14.1,6.4
	c7,2,14.1,5.3,14.1,14.1c0,12.4-10.5,16.3-21.2,16.3c-11.2,0-21.1-4.9-21.2-17.4H184.4z"/>
<path class="st1" d="M240.2,64.1H233v16.1c0,2.8,1.6,3.4,4.2,3.4c1,0,2-0.1,3-0.1V92c-2.1,0.1-4.2,0.3-6.3,0.3
	c-9.9,0-12.4-2.9-12.4-12.5V64.1h-5.9v-7.5h5.9V45.8H233v10.7h7.2V64.1z"/>
<path class="st1" d="M261.6,55.5c11,0,18.7,8.1,18.7,18.8S272.6,93,261.6,93S243,84.9,243,74.3S250.6,55.5,261.6,55.5z M261.6,84.1
	c5.4,0,7.1-5.3,7.1-9.8s-1.7-9.9-7.1-9.9s-7,5.4-7,9.9C254.6,78.8,256.2,84.1,261.6,84.1z"/>
<path class="st1" d="M285.7,43.2h11.6v17.2h0.1c2.4-3.3,5.7-4.9,10.1-4.9c10,0,15,8.7,15,18c0,10-4.7,19.5-15.8,19.5
	c-4.1,0-7.5-1.8-9.8-5.1h-0.1V92h-11.1L285.7,43.2L285.7,43.2z M296.9,73.9c0,6.2,1.8,10.2,7,10.2s7-5.4,7-10.2
	c0-4.5-1.8-9.5-6.9-9.5C300.9,64.4,296.9,66.6,296.9,73.9z"/>
<path class="st1" d="M328,43.2h11.6v17.2h0.1c2.4-3.3,5.7-4.9,10.1-4.9c10,0,14.9,8.7,14.9,18c0,10-4.7,19.5-15.8,19.5
	c-4.1,0-7.5-1.8-9.8-5.1H339V92h-11V43.2z M339.2,73.9c0,6.2,1.8,10.2,7,10.2s7-5.4,7-10.2c0-4.5-1.8-9.5-6.9-9.5
	C343.2,64.4,339.2,66.6,339.2,73.9z"/>
<path class="st1" d="M379.3,80.3c0,1.8,0.7,3.1,1.9,4c1.1,0.8,2.7,1.2,4.3,1.2c2.3,0,5.5-1,5.5-3.8c0-2.7-3.6-3.3-5.7-3.8
	c-7.3-1.8-16.5-2-16.5-11.6c0-8.5,9.2-10.9,16.2-10.9c7.8,0,15.9,2.3,16.3,11.5h-10.7c0-1.5-0.5-2.5-1.5-3.1s-2.3-0.9-3.7-0.9
	c-1.9,0-5,0.2-5,2.7c0,3.3,7.8,4,13.1,5.1c7.2,1.4,9,6.6,9,9.6c0,9.5-9,12.6-17,12.6c-8.4,0-17-2.8-17.3-12.7h11.1V80.3z"/>
<g>
	<path class="st1" d="M16.1,121.6h21.3c15.8,0,22.7,11.5,22.7,25.7c0,14.2-6.8,25.7-22.7,25.7H16.1V121.6z M25.1,165.7H34
		c14.1,0,17.1-8.1,17.1-18.4s-3-18.4-17.1-18.4h-8.9V165.7z"/>
	<path class="st1" d="M63.5,121.6h8.2v7.8h-8.2V121.6z M63.5,135.8h8.2V173h-8.2V135.8z"/>
	<path class="st1" d="M111.5,171.1c0,11.2-6.6,16.7-18.3,16.7c-7.5,0-15.9-2.9-16.6-11.6h8.2c1,4.7,4.8,5.5,8.9,5.5
		c6.6,0,9.6-3.4,9.6-9.5v-5.7h-0.1c-2.3,4.1-6.6,6.6-11.2,6.6c-11.8,0-16.7-8.9-16.7-19.6c0-10,6.3-18.6,16.8-18.6
		c4.7,0,8.9,1.9,11,6.1h0.1v-5.1h8.2V171.1z M103.3,153.6c0-6.4-2.9-12.3-10-12.3c-7.3,0-9.8,6.8-9.8,13c0,6.1,3,12.3,9.8,12.3
		C100.6,166.5,103.3,159.9,103.3,153.6z"/>
	<path class="st1" d="M116.4,121.6h8.2v7.8h-8.2V121.6z M116.4,135.8h8.2V173h-8.2V135.8z"/>
	<path class="st1" d="M126.2,135.8h6.2v-11.2h8.2v11.2h7.4v6.1h-7.4v19.9c0,3.4,0.3,5.1,4,5.1c1.2,0,2.3,0,3.5-0.3v6.3
		c-1.8,0.1-3.5,0.4-5.3,0.4c-8.6,0-10.2-3.3-10.3-9.5v-22h-6.2V135.8z"/>
	<path class="st1" d="M181.5,164.7c0,2,0.4,2.8,1.9,2.8c0.5,0,1.2,0,2-0.1v5.7c-1.2,0.4-3.8,0.9-5.2,0.9c-3.3,0-5.7-1.2-6.3-4.5
		c-3.2,3.2-8.5,4.5-12.9,4.5c-6.7,0-12.7-3.6-12.7-10.9c0-9.3,7.4-10.8,14.3-11.6c5.9-1.1,11.2-0.4,11.2-5.3c0-4.2-4.4-5-7.7-5
		c-4.6,0-7.8,1.9-8.2,5.9h-8.2c0.6-9.6,8.7-12.4,16.9-12.4c7.3,0,14.9,3,14.9,10.8V164.7z M173.3,154.4c-2.5,1.7-6.5,1.6-10.1,2.2
		c-3.5,0.6-6.7,1.9-6.7,6.2c0,3.7,4.7,4.8,7.6,4.8c3.6,0,9.2-1.9,9.2-7.1V154.4z"/>
	<path class="st1" d="M187,121.6h8.2V173H187V121.6z"/>
	<path class="st1" d="M218.1,121.6h21.3c15.8,0,22.7,11.5,22.7,25.7c0,14.2-6.8,25.7-22.7,25.7h-21.3V121.6z M227.1,165.7h8.9
		c14.1,0,17.1-8.1,17.1-18.4s-3-18.4-17.1-18.4h-8.9V165.7z"/>
	<path class="st1" d="M271.7,156.5c0,5.8,3.2,11,10,11c4.8,0,7.6-2.1,9.1-6.2h7.8c-1.8,8.1-8.7,12.7-16.8,12.7
		c-11.7,0-18.2-8.1-18.2-19.6c0-10.6,6.9-19.7,18-19.7c11.7,0,18.9,10.6,17.6,21.7H271.7z M290.9,151.1c-0.3-5.2-3.8-9.9-9.4-9.9
		c-5.7,0-9.6,4.3-9.8,9.9H290.9z"/>
	<path class="st1" d="M307.9,161c0.4,4.8,4,6.5,8.4,6.5c3.1,0,8.5-0.6,8.3-4.9c-0.2-4.3-6.2-4.8-12.2-6.2c-6-1.3-12-3.5-12-11
		c0-8.1,8.8-10.7,15.6-10.7c7.6,0,14.5,3.2,15.6,11.4H323c-0.7-3.9-4-5-7.6-5c-2.4,0-6.8,0.6-6.8,3.8c0,4,6,4.6,12.1,6
		c6,1.4,12,3.5,12,10.9c0,8.9-8.9,12.1-16.6,12.1c-9.4,0-16.3-4.2-16.5-13H307.9z"/>
	<path class="st1" d="M335.7,121.6h8.2v7.8h-8.2V121.6z M335.7,135.8h8.2V173h-8.2V135.8z"/>
	<path class="st1" d="M383.7,171.1c0,11.2-6.6,16.7-18.3,16.7c-7.5,0-15.9-2.9-16.6-11.6h8.2c1,4.7,4.8,5.5,8.9,5.5
		c6.6,0,9.6-3.4,9.6-9.5v-5.7h-0.1c-2.3,4.1-6.6,6.6-11.2,6.6c-11.8,0-16.7-8.9-16.7-19.6c0-10,6.3-18.6,16.8-18.6
		c4.7,0,8.9,1.9,11,6.1h0.1v-5.1h8.2V171.1z M375.4,153.6c0-6.4-2.9-12.3-10-12.3c-7.3,0-9.8,6.8-9.8,13c0,6.1,3,12.3,9.8,12.3
		C372.7,166.5,375.4,159.9,375.4,153.6z"/>
	<path class="st1" d="M388.3,135.8h7.8v5.5l0.1,0.1c2.4-4.1,6.7-6.6,11.6-6.6c8.1,0,13.2,4.3,13.2,12.7V173h-8.2v-23.4
		c-0.1-5.8-2.4-8.4-7.3-8.4c-5.5,0-9,4.3-9,9.8v22h-8.2V135.8z"/>
	<path class="st1" d="M432.5,156.5c0,5.8,3.2,11,10,11c4.8,0,7.6-2.1,9.1-6.2h7.8c-1.8,8.1-8.7,12.7-16.8,12.7
		c-11.7,0-18.2-8.1-18.2-19.6c0-10.6,6.9-19.7,18-19.7c11.7,0,18.9,10.6,17.6,21.7H432.5z M451.6,151.1c-0.3-5.2-3.8-9.9-9.4-9.9
		c-5.7,0-9.6,4.3-9.8,9.9H451.6z"/>
	<path class="st1" d="M462.5,135.8h7.7v7.2h0.1c0.9-4,5.8-8.2,10.9-8.2c1.9,0,2.4,0.1,3.1,0.2v7.9c-1.2-0.1-2.4-0.4-3.5-0.4
		c-5.6,0-10.1,4.5-10.1,12.7V173h-8.2V135.8z"/>
</g>
</svg>
