<?xml version="1.0" encoding="utf-8"?>
<!-- Generator: Adobe Illustrator 23.0.6, SVG Export Plug-In . SVG Version: 6.00 Build 0)  -->
<svg version="1.1" id="Layer_1" xmlns="http://www.w3.org/2000/svg" xmlns:xlink="http://www.w3.org/1999/xlink" x="0px" y="0px"
	 viewBox="0 0 514 295" style="enable-background:new 0 0 514 295;" xml:space="preserve">
<style type="text/css">
	.st0{fill:#231F20;}
	.st1{fill:#FFFFFF;}
</style>
<g>
	<g>
		<rect x="11.7" y="19" class="st0" width="416.1" height="93.6"/>
		<rect x="11.7" y="107.2" class="st0" width="485.5" height="93.6"/>
		<rect x="11.7" y="192.3" class="st0" width="294.7" height="93.6"/>
	</g>
	<g>
		<path class="st1" d="M16.1,43.2h12.7v18.7l16-18.7h15.8l-18,19.2L62.8,92H47.1L34,71.5L28.8,77v15H16.1V43.2z"/>
		<path class="st1" d="M65,67.5c0.2-4.6,2.4-7.6,5.5-9.5c3.1-1.8,7.2-2.5,11.3-2.5c8.4,0,16.5,1.8,16.5,11.9v15.5c0,3,0,6.3,1.4,9.1
			H88c-0.4-1.1-0.5-2.2-0.7-3.3c-3,3.1-7.4,4.4-11.7,4.4c-6.8,0-12.1-3.4-12.1-10.7c0-11.5,12.6-10.7,20.6-12.3
			c2-0.4,3.1-1.1,3.1-3.3c0-2.7-3.2-3.7-5.6-3.7c-3.2,0-5.3,1.4-5.8,4.4H65z M80,85.8c5.5,0,7.4-3.1,7.1-10.4
			c-1.6,1-4.6,1.2-7.2,1.9c-2.6,0.6-4.8,1.7-4.8,4.5C75.2,84.7,77.4,85.8,80,85.8z"/>
		<path class="st1" d="M105.7,56.5h11.3v6.2h0.1c1.7-4.5,5.7-6.9,10.7-6.9c0.9,0,1.8,0.1,2.7,0.3v10.6c-1.5-0.4-2.9-0.7-4.4-0.7
			c-5.7,0-8.7,4-8.7,8.4V92h-11.6V56.5z"/>
		<path class="st1" d="M134.1,43.2h11.6V92h-11.6V43.2z"/>
		<path class="st1" d="M184.4,75.6c0.3,5.7,3.8,7.6,9.2,7.6c3.8,0,7.8-1.4,7.8-5c0-4.3-7-5.1-14-7.1c-7-2-14.3-5.1-14.3-14.1
			c0-10.7,10.7-14.8,19.9-14.8c9.7,0,19.5,4.7,19.5,15.7h-12.7c0.2-4.4-4-5.9-7.9-5.9c-2.7,0-6.1,1-6.1,4.2c0,3.8,7,4.4,14.1,6.4
			c7,2,14.1,5.3,14.1,14.1c0,12.4-10.5,16.3-21.2,16.3c-11.2,0-21.1-4.9-21.2-17.4H184.4z"/>
		<path class="st1" d="M240.2,64.1H233v16.1c0,2.8,1.6,3.4,4.2,3.4c1,0,2-0.1,3-0.1V92c-2.1,0.1-4.2,0.3-6.3,0.3
			c-9.9,0-12.4-2.9-12.4-12.5V64.1h-5.9v-7.5h5.9V45.8H233v10.7h7.2V64.1z"/>
		<path class="st1" d="M261.6,55.5c11,0,18.7,8.1,18.7,18.8S272.6,93,261.6,93S243,84.9,243,74.3S250.6,55.5,261.6,55.5z
			 M261.6,84.1c5.4,0,7.1-5.3,7.1-9.8c0-4.5-1.7-9.9-7.1-9.9c-5.4,0-7,5.4-7,9.9C254.6,78.8,256.2,84.1,261.6,84.1z"/>
		<path class="st1" d="M285.7,43.2h11.6v17.2h0.1c2.4-3.3,5.7-4.9,10.1-4.9c10,0,15,8.7,15,18c0,10-4.7,19.5-15.8,19.5
			c-4.1,0-7.5-1.8-9.8-5.1h-0.1V92h-11.1V43.2z M296.9,73.9c0,6.2,1.8,10.2,7,10.2c5.2,0,7-5.4,7-10.2c0-4.5-1.8-9.5-6.9-9.5
			C300.9,64.4,296.9,66.6,296.9,73.9z"/>
		<path class="st1" d="M328,43.2h11.6v17.2h0.1c2.4-3.3,5.7-4.9,10.1-4.9c10,0,14.9,8.7,14.9,18c0,10-4.7,19.5-15.8,19.5
			c-4.1,0-7.5-1.8-9.8-5.1h-0.1V92H328V43.2z M339.2,73.9c0,6.2,1.8,10.2,7,10.2c5.2,0,7-5.4,7-10.2c0-4.5-1.8-9.5-6.9-9.5
			C343.2,64.4,339.2,66.6,339.2,73.9z"/>
		<path class="st1" d="M379.3,80.3c0,1.8,0.7,3.1,1.9,4c1.1,0.8,2.7,1.2,4.3,1.2c2.3,0,5.5-1,5.5-3.8c0-2.7-3.6-3.3-5.7-3.8
			c-7.3-1.8-16.5-2-16.5-11.6c0-8.5,9.2-10.9,16.2-10.9c7.8,0,15.9,2.3,16.3,11.5h-10.7c0-1.5-0.5-2.5-1.5-3.1
			c-1-0.6-2.3-0.9-3.7-0.9c-1.9,0-5,0.2-5,2.7c0,3.3,7.8,4,13.1,5.1c7.2,1.4,9,6.6,9,9.6c0,9.5-9,12.6-17,12.6
			c-8.4,0-17-2.8-17.3-12.7H379.3z"/>
		<path class="st1" d="M50.4,161.9c0,10.8-6.2,16.4-16.8,16.4c-11,0-17.5-5.1-17.5-16.4v-27.2h5.7v27.2c0,7.5,4.3,11.6,11.8,11.6
			c7.2,0,11.1-4.1,11.1-11.6v-27.2h5.7V161.9z"/>
		<path class="st1" d="M65.7,134.6h5.7v42.7h-5.7V134.6z"/>
		<path class="st1" d="M98.8,133.6h4.4l-17.7,44.7h-4.4L98.8,133.6z"/>
		<path class="st1" d="M146.8,161.9c0,10.8-6.2,16.4-16.8,16.4c-11,0-17.5-5.1-17.5-16.4v-27.2h5.7v27.2c0,7.5,4.3,11.6,11.8,11.6
			c7.2,0,11.1-4.1,11.1-11.6v-27.2h5.7V161.9z"/>
		<path class="st1" d="M172,155.4l-14-20.7h6.8l10.6,16.7l11.1-16.7h6.3l-14.1,20.7l15,21.9h-6.9l-11.5-17.6l-11.8,17.6h-6.4
			L172,155.4z"/>
		<path class="st1" d="M216.2,133.6h4.4l-17.7,44.7h-4.4L216.2,133.6z"/>
		<path class="st1" d="M262,172c-3.3,4.5-8.7,6.3-13.7,6.3c-12.7,0-20.3-10.4-20.3-21.5c0-12.4,6.8-23.2,20.3-23.2
			c9.3,0,16.7,4.2,18.3,14.2H261c-1.1-6.5-6.3-9.4-12.7-9.4c-10.3,0-14.6,9-14.6,18.1c0,8.9,5.1,17,14.6,17c8.8,0,14-6.2,13.7-13.9
			h-13.6v-4.8h18.7v22.5h-3.6L262,172z"/>
		<path class="st1" d="M280.4,146.4h4.8v6.5h0.1c2.5-5,5.9-7.4,11.4-7.2v5.4c-8.2,0-11.2,4.7-11.2,12.5v13.7h-5.1V146.4z"/>
		<path class="st1" d="M333.8,177.2c-0.9,0.5-2,0.8-3.6,0.8c-2.6,0-4.3-1.4-4.3-4.8c-2.8,3.3-6.6,4.8-10.9,4.8
			c-5.6,0-10.2-2.5-10.2-8.7c0-7,5.2-8.5,10.5-9.5c5.6-1.1,10.4-0.7,10.4-4.5c0-4.4-3.6-5.1-6.9-5.1c-4.3,0-7.5,1.3-7.7,5.9H306
			c0.3-7.6,6.2-10.3,13.1-10.3c5.6,0,11.6,1.3,11.6,8.5V170c0,2.4,0,3.5,1.6,3.5c0.4,0,0.9-0.1,1.6-0.3V177.2z M325.6,161.3
			c-2,1.4-5.8,1.5-9.2,2.1c-3.3,0.6-6.2,1.8-6.2,5.6c0,3.3,2.9,4.5,6,4.5c6.7,0,9.4-4.2,9.4-7V161.3z"/>
		<path class="st1" d="M344.7,146.4h5.1v4.2h0.1c1.7-3.4,5.6-4.9,9.9-4.9c9.5,0,14.2,7.5,14.2,16.3c0,8.7-4.7,16.1-14.1,16.1
			c-3.2,0-7.7-1.2-10-4.8h-0.1v16h-5.1V146.4z M359,150.2c-6.8,0-9.4,5.9-9.4,11.7c0,6.1,2.7,11.7,9.7,11.7c6.9,0,9.3-5.9,9.3-11.9
			C368.6,155.8,365.6,150.2,359,150.2z"/>
		<path class="st1" d="M385.9,134.6h5.1v16.3h0.1c1.7-3.7,6-5.3,9.7-5.3c8.1,0,10.6,4.7,10.6,11.3v20.3h-5.1v-20.9
			c0-3.8-2.4-6.2-6.3-6.2c-6.2,0-9.1,4.1-9.1,9.7v17.4h-5.1V134.6z"/>
		<path class="st1" d="M430.4,140.8h-5.1v-6.2h5.1V140.8z M425.3,146.4h5.1v30.9h-5.1V146.4z"/>
		<path class="st1" d="M465.2,156.3c-0.8-3.9-3.5-6.2-7.6-6.2c-7.3,0-9.6,5.8-9.6,12.1c0,5.7,2.6,11.3,9,11.3c4.9,0,7.8-2.9,8.5-7.5
			h5.2c-1.1,7.5-5.9,12-13.6,12c-9.4,0-14.5-6.6-14.5-15.8c0-9.3,4.8-16.6,14.6-16.6c7,0,12.6,3.3,13.3,10.6H465.2z"/>
		<path class="st1" d="M16.4,219.9H31c13.1,0,20.5,6.6,20.5,20.3c0,14.3-6.3,22.3-20.5,22.3H16.4V219.9z M22.1,257.8h9.4
			c3.9,0,14.3-1.1,14.3-16.8c0-10.2-3.8-16.3-14.2-16.3h-9.6V257.8z"/>
		<path class="st1" d="M89.9,252.8c-1.4,6.8-6.3,10.5-13.2,10.5c-9.9,0-14.5-6.8-14.8-16.3c0-9.3,6.1-16.1,14.5-16.1
			c10.9,0,14.3,10.2,14,17.7H67.3c-0.2,5.4,2.9,10.2,9.6,10.2c4.2,0,7.1-2,8-6H89.9z M85,244.2c-0.2-4.8-3.9-8.7-8.9-8.7
			c-5.3,0-8.5,4-8.8,8.7H85z"/>
		<path class="st1" d="M104.7,252.8c0.2,4.5,4.1,6,8.3,6c3.2,0,7.5-0.7,7.5-4.6c0-3.9-5-4.6-10.1-5.7c-5-1.1-10.1-2.8-10.1-8.7
			c0-6.2,6.2-8.8,11.5-8.8c6.8,0,12.2,2.1,12.7,9.7h-5.1c-0.4-3.9-3.8-5.2-7.2-5.2c-3,0-6.6,0.8-6.6,3.9c0,3.6,5.4,4.2,10.1,5.4
			c5.1,1.1,10.1,2.8,10.1,8.8c0,7.3-6.9,9.7-13.1,9.7c-6.9,0-12.8-2.8-13.1-10.5H104.7z"/>
		<path class="st1" d="M142.8,226.1h-5.1v-6.2h5.1V226.1z M137.7,231.7h5.1v30.9h-5.1V231.7z"/>
		<path class="st1" d="M183.3,260c0,10-4.6,15.2-14.3,15.2c-5.8,0-12.5-2.3-12.8-9.1h5.1c0.2,3.7,4.7,5,8,5c6.6,0,9.3-4.8,9.3-11.7
			v-2h-0.1c-1.7,3.8-5.7,5.6-9.6,5.6c-9.2,0-13.8-7.2-13.8-15.7c0-7.3,3.6-16.3,14.3-16.3c3.9,0,7.3,1.7,9.2,5.1h0.1v-4.4h4.8V260z
			 M178.3,246.5c0-5.4-2.4-11.1-8.8-11.1c-6.5,0-9.1,5.3-9.1,11.2c0,5.6,2,11.8,8.7,11.8C175.8,258.5,178.3,252.3,178.3,246.5z"/>
		<path class="st1" d="M196.9,231.7h4.8v4.9h0.1c2.2-3.8,5.6-5.6,10-5.6c8.1,0,10.6,4.7,10.6,11.3v20.3h-5.1v-20.9
			c0-3.8-2.4-6.2-6.3-6.2c-6.2,0-9.1,4.1-9.1,9.7v17.4h-5.1V231.7z"/>
		<path class="st1" d="M262.4,252.8c-1.4,6.8-6.3,10.5-13.2,10.5c-9.9,0-14.5-6.8-14.8-16.3c0-9.3,6.1-16.1,14.5-16.1
			c10.9,0,14.3,10.2,14,17.7h-23.1c-0.2,5.4,2.9,10.2,9.6,10.2c4.2,0,7.1-2,8-6H262.4z M257.5,244.2c-0.2-4.8-3.9-8.7-8.9-8.7
			c-5.3,0-8.5,4-8.8,8.7H257.5z"/>
		<path class="st1" d="M273.9,231.7h4.8v6.5h0.1c2.4-5,5.9-7.4,11.3-7.2v5.4c-8.2,0-11.2,4.7-11.2,12.5v13.7h-5.1V231.7z"/>
	</g>
</g>
</svg>
