<?xml version="1.0" encoding="utf-8"?>
<!-- Generator: Adobe Illustrator 23.0.6, SVG Export Plug-In . SVG Version: 6.00 Build 0)  -->
<svg version="1.1" id="Layer_1" xmlns="http://www.w3.org/2000/svg" xmlns:xlink="http://www.w3.org/1999/xlink" x="0px" y="0px"
	 viewBox="0 0 603 425" style="enable-background:new 0 0 603 425;" xml:space="preserve">
<style type="text/css">
	.st0{fill:#FF7BAC;}
</style>
<polygon class="st0" points="513.8,110.7 513.8,22.5 97.7,22.5 97.7,23 97.3,23 97.3,23.6 96.9,23.6 96.9,24.2 96.6,24.2 96.6,24.7 
	96.2,24.7 96.2,25.3 95.8,25.3 95.8,25.8 95.4,25.8 95.4,26.4 95,26.4 95,27 94.6,27 94.6,27.5 94.2,27.5 94.2,28.1 93.8,28.1 
	93.8,28.6 93.4,28.6 93.4,29.2 93.1,29.2 93.1,29.8 92.7,29.8 92.7,30.3 92.3,30.3 92.3,30.9 91.9,30.9 91.9,31.5 91.5,31.5 
	91.5,32 91.1,32 91.1,32.6 90.7,32.6 90.7,33.1 90.3,33.1 90.3,33.7 90,33.7 90,34.3 89.6,34.3 89.6,34.8 89.2,34.8 89.2,35.4 
	88.8,35.4 88.8,36 88.4,36 88.4,36.5 88,36.5 88,37.1 87.6,37.1 87.6,37.6 87.2,37.6 87.2,38.2 86.8,38.2 86.8,38.8 86.5,38.8 
	86.5,39.3 86.1,39.3 86.1,39.9 85.7,39.9 85.7,40.5 85.3,40.5 85.3,41 84.9,41 84.9,41.6 84.5,41.6 84.5,42.1 84.1,42.1 84.1,42.7 
	83.7,42.7 83.7,43.3 83.4,43.3 83.4,43.8 83,43.8 83,44.4 82.6,44.4 82.6,45 82.2,45 82.2,45.5 81.8,45.5 81.8,46.1 81.4,46.1 
	81.4,46.6 81,46.6 81,47.2 80.6,47.2 80.6,47.8 80.3,47.8 80.3,48.3 79.9,48.3 79.9,48.9 79.5,48.9 79.5,49.5 79.1,49.5 79.1,50 
	78.7,50 78.7,50.6 78.3,50.6 78.3,51.1 77.9,51.1 77.9,51.7 77.5,51.7 77.5,52.3 77.1,52.3 77.1,52.8 76.8,52.8 76.8,53.4 
	76.4,53.4 76.4,53.9 76,53.9 76,54.5 75.6,54.5 75.6,55.1 75.2,55.1 75.2,55.6 74.8,55.6 74.8,56.2 74.4,56.2 74.4,56.8 74,56.8 
	74,57.3 73.7,57.3 73.7,57.9 73.3,57.9 73.3,58.4 72.9,58.4 72.9,59 72.5,59 72.5,59.6 72.1,59.6 72.1,60.1 71.7,60.1 71.7,60.7 
	71.3,60.7 71.3,61.3 70.9,61.3 70.9,61.8 70.6,61.8 70.6,62.4 70.2,62.4 70.2,62.9 69.8,62.9 69.8,63.5 69.4,63.5 69.4,64.1 
	69,64.1 69,64.6 68.6,64.6 68.6,65.2 68.2,65.2 68.2,65.8 67.8,65.8 67.8,66.3 67.4,66.3 67.4,66.9 67.1,66.9 67.1,67.4 66.7,67.4 
	66.7,68 66.3,68 66.3,68.6 65.9,68.6 65.9,69.1 65.5,69.1 65.5,69.7 65.1,69.7 65.1,70.3 64.7,70.3 64.7,70.8 64.3,70.8 64.3,71.4 
	64,71.4 64,71.9 63.6,71.9 63.6,72.5 63.2,72.5 63.2,73.1 62.8,73.1 62.8,73.6 62.4,73.6 62.4,74.2 62,74.2 62,74.7 61.6,74.7 
	61.6,75.3 61.2,75.3 61.2,75.9 60.8,75.9 60.8,76.4 60.5,76.4 60.5,77 60.1,77 60.1,77.6 59.7,77.6 59.7,78.1 59.3,78.1 59.3,78.7 
	58.9,78.7 58.9,79.2 58.5,79.2 58.5,79.8 58.1,79.8 58.1,80.4 57.7,80.4 57.7,80.9 57.4,80.9 57.4,81.5 57,81.5 57,82.1 56.6,82.1 
	56.6,82.6 56.2,82.6 56.2,83.2 55.8,83.2 55.8,83.7 55.4,83.7 55.4,84.3 55,84.3 55,84.9 54.6,84.9 54.6,85.4 54.3,85.4 54.3,86 
	53.9,86 53.9,86.6 53.5,86.6 53.5,87.1 53.1,87.1 53.1,87.7 52.7,87.7 52.7,88.2 52.3,88.2 52.3,88.8 51.9,88.8 51.9,89.4 
	51.5,89.4 51.5,89.9 51.1,89.9 51.1,90.5 50.8,90.5 50.8,91.1 50.4,91.1 50.4,91.6 50,91.6 50,92.2 49.6,92.2 49.6,92.7 49.2,92.7 
	49.2,93.3 48.8,93.3 48.8,93.9 48.4,93.9 48.4,94.4 48,94.4 48,95 47.7,95 47.7,95.5 47.3,95.5 47.3,96.1 46.9,96.1 46.9,96.7 
	46.5,96.7 46.5,97.2 46.1,97.2 46.1,97.8 45.7,97.8 45.7,98.4 45.3,98.4 45.3,98.9 44.9,98.9 44.9,99.5 44.6,99.5 44.6,100 
	44.2,100 44.2,100.6 43.8,100.6 43.8,101.2 43.4,101.2 43.4,101.7 43,101.7 43,102.3 42.6,102.3 42.6,102.9 42.2,102.9 42.2,103.4 
	41.8,103.4 41.8,104 41.4,104 41.4,104.5 41.1,104.5 41.1,105.1 40.7,105.1 40.7,105.7 40.3,105.7 40.3,106.2 39.9,106.2 
	39.9,106.8 39.5,106.8 39.5,107.4 39.1,107.4 39.1,107.9 38.7,107.9 38.7,108.5 38.3,108.5 38.3,109 38,109 38,109.6 37.6,109.6 
	37.6,110.2 37.2,110.2 37.2,110.7 36.8,110.7 36.8,111.3 36.4,111.3 36.4,111.9 36,111.9 36,112.4 35.6,112.4 35.6,113 35.2,113 
	35.2,113.5 34.8,113.5 34.8,114.1 34.5,114.1 34.5,114.7 34.1,114.7 34.1,115.2 33.7,115.2 33.7,115.8 33.3,115.8 33.3,116.4 
	32.9,116.4 32.9,116.9 32.5,116.9 32.5,117.5 32.1,117.5 32.1,118 31.7,118 31.7,118.6 31.4,118.6 31.4,119.2 31,119.2 31,119.7 
	30.6,119.7 30.6,120.3 30.2,120.3 30.2,120.8 29.8,120.8 29.8,121.4 29.4,121.4 29.4,122 29,122 29,122.5 28.6,122.5 28.6,123.1 
	28.3,123.1 28.3,123.7 27.9,123.7 27.9,124.2 27.5,124.2 27.5,124.8 27.1,124.8 27.1,125.3 26.7,125.3 26.7,125.9 26.3,125.9 
	26.3,126.5 25.9,126.5 25.9,127 25.5,127 25.5,127.6 25.1,127.6 25.1,128.2 24.8,128.2 24.8,128.7 24.4,128.7 24.4,129.3 24,129.3 
	24,129.8 23.6,129.8 23.6,130.4 23.2,130.4 23.2,131 22.8,131 22.8,131.5 22.4,131.5 22.4,132.1 22,132.1 22,132.7 21.7,132.7 
	21.7,133.2 21.3,133.2 21.3,133.8 20.9,133.8 20.9,134.3 20.5,134.3 20.5,134.9 20.1,134.9 20.1,135.5 19.7,135.5 19.7,223.7 
	19.7,229.1 19.7,308.8 19.7,317.4 19.7,402.5 314.5,402.5 314.5,401.9 314.8,401.9 314.8,401.3 315.2,401.3 315.2,400.8 
	315.6,400.8 315.6,400.2 316,400.2 316,399.7 316.4,399.7 316.4,399.1 316.8,399.1 316.8,398.5 317.2,398.5 317.2,398 317.6,398 
	317.6,397.4 317.9,397.4 317.9,396.8 318.3,396.8 318.3,396.3 318.7,396.3 318.7,395.7 319.1,395.7 319.1,395.2 319.5,395.2 
	319.5,394.6 319.9,394.6 319.9,394 320.3,394 320.3,393.5 320.7,393.5 320.7,392.9 321.1,392.9 321.1,392.3 321.4,392.3 
	321.4,391.8 321.8,391.8 321.8,391.2 322.2,391.2 322.2,390.7 322.6,390.7 322.6,390.1 323,390.1 323,389.5 323.4,389.5 323.4,389 
	323.8,389 323.8,388.4 324.2,388.4 324.2,387.8 324.5,387.8 324.5,387.3 324.9,387.3 324.9,386.7 325.3,386.7 325.3,386.2 
	325.7,386.2 325.7,385.6 326.1,385.6 326.1,385 326.5,385 326.5,384.5 326.9,384.5 326.9,383.9 327.3,383.9 327.3,383.4 
	327.6,383.4 327.6,382.8 328,382.8 328,382.2 328.4,382.2 328.4,381.7 328.8,381.7 328.8,381.1 329.2,381.1 329.2,380.5 
	329.6,380.5 329.6,380 330,380 330,379.4 330.4,379.4 330.4,378.9 330.8,378.9 330.8,378.3 331.1,378.3 331.1,377.7 331.5,377.7 
	331.5,377.2 331.9,377.2 331.9,376.6 332.3,376.6 332.3,376 332.7,376 332.7,375.5 333.1,375.5 333.1,374.9 333.5,374.9 
	333.5,374.4 333.9,374.4 333.9,373.8 334.2,373.8 334.2,373.2 334.6,373.2 334.6,372.7 335,372.7 335,372.1 335.4,372.1 
	335.4,371.5 335.8,371.5 335.8,371 336.2,371 336.2,370.4 336.6,370.4 336.6,369.9 337,369.9 337,369.3 337.4,369.3 337.4,368.7 
	337.7,368.7 337.7,368.2 338.1,368.2 338.1,367.6 338.5,367.6 338.5,367 338.9,367 338.9,366.5 339.3,366.5 339.3,365.9 
	339.7,365.9 339.7,365.4 340.1,365.4 340.1,364.8 340.5,364.8 340.5,364.2 340.8,364.2 340.8,363.7 341.2,363.7 341.2,363.1 
	341.6,363.1 341.6,362.5 342,362.5 342,362 342.4,362 342.4,361.4 342.8,361.4 342.8,360.9 343.2,360.9 343.2,360.3 343.6,360.3 
	343.6,359.7 343.9,359.7 343.9,359.2 344.3,359.2 344.3,358.6 344.7,358.6 344.7,358.1 345.1,358.1 345.1,357.5 345.5,357.5 
	345.5,356.9 345.9,356.9 345.9,356.4 346.3,356.4 346.3,355.8 346.7,355.8 346.7,355.2 347.1,355.2 347.1,354.7 347.4,354.7 
	347.4,354.1 347.8,354.1 347.8,353.6 348.2,353.6 348.2,353 348.6,353 348.6,352.4 349,352.4 349,351.9 349.4,351.9 349.4,351.3 
	349.8,351.3 349.8,350.7 350.2,350.7 350.2,350.2 350.5,350.2 350.5,349.6 350.9,349.6 350.9,349.1 351.3,349.1 351.3,348.5 
	351.7,348.5 351.7,347.9 352.1,347.9 352.1,347.4 352.5,347.4 352.5,346.8 352.9,346.8 352.9,346.2 353.3,346.2 353.3,345.7 
	353.6,345.7 353.6,345.1 354,345.1 354,344.6 354.4,344.6 354.4,344 354.8,344 354.8,343.4 355.2,343.4 355.2,342.9 355.6,342.9 
	355.6,342.3 356,342.3 356,341.7 356.4,341.7 356.4,341.2 356.8,341.2 356.8,340.6 357.1,340.6 357.1,340.1 357.5,340.1 
	357.5,339.5 357.9,339.5 357.9,338.9 358.3,338.9 358.3,338.4 358.7,338.4 358.7,337.8 359.1,337.8 359.1,337.3 359.5,337.3 
	359.5,336.7 359.9,336.7 359.9,336.1 360.2,336.1 360.2,335.6 360.6,335.6 360.6,335 361,335 361,334.4 361.4,334.4 361.4,333.9 
	361.8,333.9 361.8,333.3 362.2,333.3 362.2,332.8 362.6,332.8 362.6,332.2 363,332.2 363,331.6 363.4,331.6 363.4,331.1 
	363.7,331.1 363.7,330.5 364.1,330.5 364.1,329.9 364.5,329.9 364.5,329.4 364.9,329.4 364.9,328.8 365.3,328.8 365.3,328.3 
	365.7,328.3 365.7,327.7 366.1,327.7 366.1,327.1 366.5,327.1 366.5,326.6 366.8,326.6 366.8,326 367.2,326 367.2,325.4 
	367.6,325.4 367.6,324.9 368,324.9 368,324.3 368.4,324.3 368.4,323.8 368.8,323.8 368.8,323.2 369.2,323.2 369.2,322.6 
	369.6,322.6 369.6,322.1 369.9,322.1 369.9,321.5 370.3,321.5 370.3,320.9 370.7,320.9 370.7,320.4 371.1,320.4 371.1,319.8 
	371.5,319.8 371.5,319.3 371.9,319.3 371.9,318.7 372.3,318.7 372.3,318.1 372.7,318.1 372.7,317.6 373.1,317.6 373.1,317.4 
	505.2,317.4 505.2,316.8 505.6,316.8 505.6,316.2 505.9,316.2 505.9,315.7 506.3,315.7 506.3,315.1 506.7,315.1 506.7,314.6 
	507.1,314.6 507.1,314 507.5,314 507.5,313.4 507.9,313.4 507.9,312.9 508.3,312.9 508.3,312.3 508.7,312.3 508.7,311.8 
	509.1,311.8 509.1,311.2 509.4,311.2 509.4,310.6 509.8,310.6 509.8,310.1 510.2,310.1 510.2,309.5 510.6,309.5 510.6,308.9 
	511,308.9 511,308.4 511.4,308.4 511.4,307.8 511.8,307.8 511.8,307.3 512.2,307.3 512.2,306.7 512.5,306.7 512.5,306.1 
	512.9,306.1 512.9,305.6 513.3,305.6 513.3,305 513.7,305 513.7,304.4 514.1,304.4 514.1,303.9 514.5,303.9 514.5,303.3 
	514.9,303.3 514.9,302.8 515.3,302.8 515.3,302.2 515.6,302.2 515.6,301.6 516,301.6 516,301.1 516.4,301.1 516.4,300.5 
	516.8,300.5 516.8,299.9 517.2,299.9 517.2,299.4 517.6,299.4 517.6,298.8 518,298.8 518,298.3 518.4,298.3 518.4,297.7 
	518.8,297.7 518.8,297.1 519.1,297.1 519.1,296.6 519.5,296.6 519.5,296 519.9,296 519.9,295.4 520.3,295.4 520.3,294.9 
	520.7,294.9 520.7,294.3 521.1,294.3 521.1,293.8 521.5,293.8 521.5,293.2 521.9,293.2 521.9,292.6 522.2,292.6 522.2,292.1 
	522.6,292.1 522.6,291.5 523,291.5 523,290.9 523.4,290.9 523.4,290.4 523.8,290.4 523.8,289.8 524.2,289.8 524.2,289.3 
	524.6,289.3 524.6,288.7 525,288.7 525,288.1 525.3,288.1 525.3,287.6 525.7,287.6 525.7,287 526.1,287 526.1,286.5 526.5,286.5 
	526.5,285.9 526.9,285.9 526.9,285.3 527.3,285.3 527.3,284.8 527.7,284.8 527.7,284.2 528.1,284.2 528.1,283.6 528.5,283.6 
	528.5,283.1 528.8,283.1 528.8,282.5 529.2,282.5 529.2,282 529.6,282 529.6,281.4 530,281.4 530,280.8 530.4,280.8 530.4,280.3 
	530.8,280.3 530.8,279.7 531.2,279.7 531.2,279.1 531.6,279.1 531.6,278.6 531.9,278.6 531.9,278 532.3,278 532.3,277.5 
	532.7,277.5 532.7,276.9 533.1,276.9 533.1,276.3 533.5,276.3 533.5,275.8 533.9,275.8 533.9,275.2 534.3,275.2 534.3,274.6 
	534.7,274.6 534.7,274.1 535.1,274.1 535.1,273.5 535.4,273.5 535.4,273 535.8,273 535.8,272.4 536.2,272.4 536.2,271.8 
	536.6,271.8 536.6,271.3 537,271.3 537,270.7 537.4,270.7 537.4,270.1 537.8,270.1 537.8,269.6 538.2,269.6 538.2,269 538.5,269 
	538.5,268.5 538.9,268.5 538.9,267.9 539.3,267.9 539.3,267.3 539.7,267.3 539.7,266.8 540.1,266.8 540.1,266.2 540.5,266.2 
	540.5,265.7 540.9,265.7 540.9,265.1 541.3,265.1 541.3,264.5 541.6,264.5 541.6,264 542,264 542,263.4 542.4,263.4 542.4,262.8 
	542.8,262.8 542.8,262.3 543.2,262.3 543.2,261.7 543.6,261.7 543.6,261.2 544,261.2 544,260.6 544.4,260.6 544.4,260 544.8,260 
	544.8,259.5 545.1,259.5 545.1,258.9 545.5,258.9 545.5,258.3 545.9,258.3 545.9,257.8 546.3,257.8 546.3,257.2 546.7,257.2 
	546.7,256.7 547.1,256.7 547.1,256.1 547.5,256.1 547.5,255.5 547.9,255.5 547.9,255 548.2,255 548.2,254.4 548.6,254.4 
	548.6,253.8 549,253.8 549,253.3 549.4,253.3 549.4,252.7 549.8,252.7 549.8,252.2 550.2,252.2 550.2,251.6 550.6,251.6 550.6,251 
	551,251 551,250.5 551.3,250.5 551.3,249.9 551.7,249.9 551.7,249.3 552.1,249.3 552.1,248.8 552.5,248.8 552.5,248.2 552.9,248.2 
	552.9,247.7 553.3,247.7 553.3,247.1 553.7,247.1 553.7,246.5 554.1,246.5 554.1,246 554.5,246 554.5,245.4 554.8,245.4 
	554.8,244.8 555.2,244.8 555.2,244.3 555.6,244.3 555.6,243.7 556,243.7 556,243.2 556.4,243.2 556.4,242.6 556.8,242.6 556.8,242 
	557.2,242 557.2,241.5 557.6,241.5 557.6,240.9 557.9,240.9 557.9,240.4 558.3,240.4 558.3,239.8 558.7,239.8 558.7,239.2 
	559.1,239.2 559.1,238.7 559.5,238.7 559.5,238.1 559.9,238.1 559.9,237.5 560.3,237.5 560.3,237 560.7,237 560.7,236.4 
	561.1,236.4 561.1,235.9 561.4,235.9 561.4,235.3 561.8,235.3 561.8,234.7 562.2,234.7 562.2,234.2 562.6,234.2 562.6,233.6 
	563,233.6 563,233 563.4,233 563.4,232.5 563.8,232.5 563.8,231.9 564.2,231.9 564.2,231.4 564.5,231.4 564.5,230.8 564.9,230.8 
	564.9,230.2 565.3,230.2 565.3,229.7 565.7,229.7 565.7,229.1 566.1,229.1 566.1,228.5 566.5,228.5 566.5,228 566.9,228 
	566.9,227.4 567.3,227.4 567.3,226.9 567.6,226.9 567.6,226.3 568,226.3 568,225.7 568.4,225.7 568.4,225.2 568.8,225.2 
	568.8,224.6 569.2,224.6 569.2,224 569.6,224 569.6,223.5 570,223.5 570,222.9 570.4,222.9 570.4,222.4 570.8,222.4 570.8,221.8 
	571.1,221.8 571.1,221.2 571.5,221.2 571.5,220.7 571.9,220.7 571.9,220.1 572.3,220.1 572.3,219.6 572.7,219.6 572.7,219 
	573.1,219 573.1,218.4 573.5,218.4 573.5,217.9 573.9,217.9 573.9,217.3 574.2,217.3 574.2,216.7 574.6,216.7 574.6,216.2 
	575,216.2 575,215.6 575.4,215.6 575.4,215.1 575.8,215.1 575.8,214.5 576.2,214.5 576.2,213.9 576.6,213.9 576.6,213.4 577,213.4 
	577,212.8 577.3,212.8 577.3,212.2 577.7,212.2 577.7,211.7 578.1,211.7 578.1,211.1 578.5,211.1 578.5,210.6 578.9,210.6 
	578.9,210 579.3,210 579.3,209.4 579.7,209.4 579.7,208.9 580.1,208.9 580.1,208.3 580.5,208.3 580.5,207.7 580.8,207.7 
	580.8,207.2 581.2,207.2 581.2,206.6 581.6,206.6 581.6,206.1 582,206.1 582,205.5 582.4,205.5 582.4,204.9 582.8,204.9 
	582.8,204.4 583.2,204.4 583.2,110.7 "/>
</svg>
