<?xml version="1.0" encoding="utf-8"?>
<!-- Generator: Adobe Illustrator 23.0.6, SVG Export Plug-In . SVG Version: 6.00 Build 0)  -->
<svg version="1.1" id="Layer_1" xmlns="http://www.w3.org/2000/svg" xmlns:xlink="http://www.w3.org/1999/xlink" x="0px" y="0px"
	 viewBox="0 0 100 100" style="enable-background:new 0 0 100 100;" xml:space="preserve">
<style type="text/css">
	.st0{fill:#FFFFFF;}
</style>
<g>
	<path class="st0" d="M56.4,17.4c4.7,2.2,8,6.7,8.5,12.1H67c-0.7-8.8-8.1-15.7-17-15.7l-0.9,0l5.4,5.4L56.4,17.4z M47.5,16.3
		c-0.8-0.8-2.2-0.8-3,0l-9.1,9.1c-0.8,0.8-0.8,2.2,0,3l17.1,17.1c0.8,0.8,2.2,0.8,3,0l9.1-9.1c0.8-0.8,0.8-2.2,0-3L47.5,16.3z
		 M54,43.9L36.9,26.8l9.1-9.1l17.1,17.1L54,43.9z M43.6,44.4c-4.7-2.2-8-6.7-8.5-12.1H33c0.7,8.8,8.1,15.7,17,15.7l0.9,0l-5.4-5.4
		C45.5,42.5,43.6,44.4,43.6,44.4z"/>
	<g>
		<path class="st0" d="M10.2,55.5h4.4c2,0,3.1,1.1,3.1,3s-1.1,3-3.1,3h-3.1v4.1h-1.3V55.5z M11.6,60.3h2.6c1.5,0,2.2-0.6,2.2-1.8
			c0-1.2-0.7-1.8-2.2-1.8h-2.6V60.3z"/>
		<path class="st0" d="M19.2,55.5h1.2v10h-1.2V55.5z"/>
		<path class="st0" d="M28.4,63.2c-0.3,1.6-1.5,2.5-3.1,2.5c-2.3,0-3.4-1.6-3.5-3.8c0-2.2,1.4-3.8,3.4-3.8c2.6,0,3.3,2.4,3.3,4.1
			h-5.4c0,1.3,0.7,2.4,2.3,2.4c1,0,1.7-0.5,1.9-1.4H28.4z M27.2,61.2c-0.1-1.1-0.9-2-2.1-2c-1.2,0-2,0.9-2.1,2H27.2z"/>
		<path class="st0" d="M36.1,65.5c-0.2,0.1-0.5,0.2-0.9,0.2c-0.6,0-1-0.3-1-1.1c-0.7,0.8-1.5,1.1-2.5,1.1c-1.3,0-2.4-0.6-2.4-2
			c0-1.6,1.2-2,2.5-2.2c1.3-0.3,2.4-0.2,2.4-1.1c0-1-0.9-1.2-1.6-1.2c-1,0-1.8,0.3-1.8,1.4h-1.2c0.1-1.8,1.5-2.4,3.1-2.4
			c1.3,0,2.7,0.3,2.7,2v3.7c0,0.6,0,0.8,0.4,0.8c0.1,0,0.2,0,0.4-0.1V65.5z M34.2,61.8c-0.5,0.3-1.4,0.4-2.2,0.5
			c-0.8,0.1-1.5,0.4-1.5,1.3c0,0.8,0.7,1.1,1.4,1.1c1.6,0,2.2-1,2.2-1.6V61.8z"/>
		<path class="st0" d="M38,63.2c0,1.1,1,1.4,1.9,1.4c0.7,0,1.8-0.2,1.8-1.1c0-0.9-1.2-1.1-2.4-1.3c-1.2-0.3-2.4-0.7-2.4-2
			c0-1.5,1.4-2.1,2.7-2.1c1.6,0,2.9,0.5,3,2.3h-1.2c-0.1-0.9-0.9-1.2-1.7-1.2c-0.7,0-1.5,0.2-1.5,0.9c0,0.9,1.3,1,2.4,1.3
			c1.2,0.3,2.4,0.7,2.4,2.1c0,1.7-1.6,2.3-3.1,2.3c-1.6,0-3-0.7-3.1-2.5H38z"/>
		<path class="st0" d="M50.4,63.2c-0.3,1.6-1.5,2.5-3.1,2.5c-2.3,0-3.4-1.6-3.5-3.8c0-2.2,1.4-3.8,3.4-3.8c2.6,0,3.3,2.4,3.3,4.1
			h-5.4c0,1.3,0.7,2.4,2.3,2.4c1,0,1.7-0.5,1.9-1.4H50.4z M49.3,61.2c-0.1-1.1-0.9-2-2.1-2c-1.2,0-2,0.9-2.1,2H49.3z"/>
		<path class="st0" d="M55.6,58.3h1.1v1.5h0c0.6-1.2,1.4-1.7,2.7-1.7v1.3c-1.9,0-2.6,1.1-2.6,2.9v3.2h-1.2V58.3z"/>
		<path class="st0" d="M63.2,58.1c2.3,0,3.5,1.7,3.5,3.8c0,2.1-1.2,3.8-3.5,3.8c-2.3,0-3.5-1.7-3.5-3.8
			C59.7,59.8,60.9,58.1,63.2,58.1z M63.2,64.6c1.2,0,2.3-1,2.3-2.7c0-1.8-1-2.7-2.3-2.7c-1.2,0-2.3,1-2.3,2.7
			C60.9,63.7,61.9,64.6,63.2,64.6z"/>
		<path class="st0" d="M69.8,58.3h1.4v1.1h-1.4v4.5c0,0.5,0.2,0.6,0.9,0.6h0.5v1.1h-0.9c-1.2,0-1.7-0.3-1.7-1.6v-4.6h-1.2v-1.1h1.2
			v-2.2h1.2V58.3z"/>
		<path class="st0" d="M78.9,65.5c-0.2,0.1-0.5,0.2-0.9,0.2c-0.6,0-1-0.3-1-1.1c-0.7,0.8-1.5,1.1-2.5,1.1c-1.3,0-2.4-0.6-2.4-2
			c0-1.6,1.2-2,2.5-2.2c1.3-0.3,2.4-0.2,2.4-1.1c0-1-0.9-1.2-1.6-1.2c-1,0-1.8,0.3-1.8,1.4h-1.2c0.1-1.8,1.5-2.4,3.1-2.4
			c1.3,0,2.7,0.3,2.7,2v3.7c0,0.6,0,0.8,0.4,0.8c0.1,0,0.2,0,0.4-0.1V65.5z M77,61.8c-0.5,0.3-1.4,0.4-2.2,0.5
			c-0.8,0.1-1.5,0.4-1.5,1.3c0,0.8,0.7,1.1,1.4,1.1c1.6,0,2.2-1,2.2-1.6V61.8z"/>
		<path class="st0" d="M81.7,58.3h1.4v1.1h-1.4v4.5c0,0.5,0.2,0.6,0.9,0.6h0.5v1.1h-0.9c-1.2,0-1.7-0.3-1.7-1.6v-4.6h-1.2v-1.1h1.2
			v-2.2h1.2V58.3z"/>
		<path class="st0" d="M90.6,63.2c-0.3,1.6-1.5,2.5-3.1,2.5c-2.3,0-3.4-1.6-3.5-3.8c0-2.2,1.4-3.8,3.4-3.8c2.6,0,3.3,2.4,3.3,4.1
			h-5.4c0,1.3,0.7,2.4,2.3,2.4c1,0,1.7-0.5,1.9-1.4H90.6z M89.5,61.2c-0.1-1.1-0.9-2-2.1-2c-1.2,0-2,0.9-2.1,2H89.5z"/>
		<path class="st0" d="M17.7,83.3c-0.5,1.4-1,1.9-2.1,1.9c-0.3,0-0.6,0-0.8-0.1V84c0.2,0.1,0.5,0.2,0.7,0.2c0.5,0,0.8-0.2,1-0.7
			l0.5-1.2L14,75.1h1.3l2.1,5.9h0l2-5.9h1.3L17.7,83.3z"/>
		<path class="st0" d="M24.9,74.9c2.3,0,3.5,1.7,3.5,3.8c0,2.1-1.2,3.8-3.5,3.8c-2.3,0-3.5-1.7-3.5-3.8
			C21.4,76.6,22.6,74.9,24.9,74.9z M24.9,81.4c1.2,0,2.3-1,2.3-2.7c0-1.8-1-2.7-2.3-2.7c-1.2,0-2.3,1-2.3,2.7
			C22.7,80.5,23.7,81.4,24.9,81.4z"/>
		<path class="st0" d="M35.9,82.3h-1.1v-1.1h0c-0.5,0.9-1.3,1.3-2.4,1.3c-1.9,0-2.5-1.1-2.5-2.6v-4.8H31V80c0,0.9,0.6,1.5,1.5,1.5
			c1.4,0,2.1-1,2.1-2.3v-4.1h1.2V82.3z"/>
		<path class="st0" d="M37.6,75.1h1.1v1.5h0c0.6-1.2,1.4-1.7,2.7-1.7v1.3c-1.9,0-2.6,1.1-2.6,2.9v3.2h-1.2V75.1z"/>
		<path class="st0" d="M52.7,82.3h-1.2v-1h0c-0.4,0.8-1.3,1.1-2.3,1.1c-2.2,0-3.3-1.8-3.3-3.8c0-2,1.1-3.8,3.3-3.8
			c0.7,0,1.8,0.3,2.3,1.1h0v-3.7h1.2V82.3z M49.3,81.4c1.6,0,2.2-1.4,2.2-2.7c0-1.4-0.6-2.7-2.3-2.7c-1.6,0-2.2,1.4-2.2,2.8
			C47.1,80.1,47.8,81.4,49.3,81.4z"/>
		<path class="st0" d="M60.7,80c-0.3,1.6-1.5,2.5-3.1,2.5c-2.3,0-3.4-1.6-3.5-3.8c0-2.2,1.4-3.8,3.4-3.8c2.6,0,3.3,2.4,3.3,4.1h-5.4
			c0,1.3,0.7,2.4,2.3,2.4c1,0,1.7-0.5,1.9-1.4H60.7z M59.5,78c-0.1-1.1-0.9-2-2.1-2c-1.2,0-2,0.9-2.1,2H59.5z"/>
		<path class="st0" d="M65.3,82.3H64l-2.7-7.2h1.3l2,6h0l2-6h1.2L65.3,82.3z"/>
		<path class="st0" d="M70.3,73.8h-1.2v-1.5h1.2V73.8z M69.1,75.1h1.2v7.2h-1.2V75.1z"/>
		<path class="st0" d="M77,77.4c-0.2-0.9-0.8-1.4-1.8-1.4c-1.7,0-2.3,1.4-2.3,2.8c0,1.3,0.6,2.6,2.1,2.6c1.1,0,1.8-0.7,2-1.8h1.2
			c-0.3,1.8-1.4,2.8-3.2,2.8c-2.2,0-3.4-1.5-3.4-3.7c0-2.2,1.1-3.9,3.4-3.9c1.6,0,3,0.8,3.1,2.5H77z"/>
		<path class="st0" d="M85.8,80c-0.3,1.6-1.5,2.5-3.1,2.5c-2.3,0-3.4-1.6-3.5-3.8c0-2.2,1.4-3.8,3.4-3.8c2.6,0,3.3,2.4,3.3,4.1h-5.4
			c0,1.3,0.7,2.4,2.3,2.4c1,0,1.7-0.5,1.9-1.4H85.8z M84.7,78c-0.1-1.1-0.9-2-2.1-2c-1.2,0-2,0.9-2.1,2H84.7z"/>
	</g>
</g>
</svg>
